<?xml version="1.0" encoding="utf-8" ?>
<svg xmlns="http://www.w3.org/2000/svg" width="1000" height="1000">
    <rect width="1000" height="1000" fill="#34434" xmlns="" />
    <g fill="#6494b7" xmlns="">
        <rect width="1" height="1000" x="20" />
        <rect width="1" height="1000" x="40" />
        <rect width="1" height="1000" x="60" />
        <rect width="1" height="1000" x="80" />
        <rect width="1" height="1000" x="100" />
        <rect width="1" height="1000" x="120" />
        <rect width="1" height="1000" x="140" />
        <rect width="1" height="1000" x="160" />
        <rect width="1" height="1000" x="180" />
        <rect width="1" height="1000" x="200" />
        <rect width="1" height="1000" x="220" />
        <rect width="1" height="1000" x="240" />
        <rect width="1" height="1000" x="260" />
        <rect width="1" height="1000" x="280" />
        <rect width="1" height="1000" x="300" />
        <rect width="1" height="1000" x="320" />
        <rect width="1" height="1000" x="340" />
        <rect width="1" height="1000" x="360" />
        <rect width="1" height="1000" x="380" />
        <rect width="1" height="1000" x="400" />
        <rect width="1" height="1000" x="420" />
        <rect width="1" height="1000" x="440" />
        <rect width="1" height="1000" x="460" />
        <rect width="1" height="1000" x="480" />
        <rect width="1" height="1000" x="500" />
        <rect width="1" height="1000" x="520" />
        <rect width="1" height="1000" x="540" />
        <rect width="1" height="1000" x="560" />
        <rect width="1" height="1000" x="580" />
        <rect width="1" height="1000" x="600" />
        <rect width="1" height="1000" x="620" />
        <rect width="1" height="1000" x="640" />
        <rect width="1" height="1000" x="660" />
        <rect width="1" height="1000" x="680" />
        <rect width="1" height="1000" x="700" />
        <rect width="1" height="1000" x="720" />
        <rect width="1" height="1000" x="740" />
        <rect width="1" height="1000" x="760" />
        <rect width="1" height="1000" x="780" />
        <rect width="1" height="1000" x="800" />
        <rect width="1" height="1000" x="820" />
        <rect width="1" height="1000" x="840" />
        <rect width="1" height="1000" x="860" />
        <rect width="1" height="1000" x="880" />
        <rect width="1" height="1000" x="900" />
        <rect width="1" height="1000" x="920" />
        <rect width="1" height="1000" x="940" />
        <rect width="1" height="1000" x="960" />
        <rect width="1" height="1000" x="980" />
        <rect width="1" height="1000" x="1000" />
        <rect width="1000" height="1" y="25" />
        <rect width="1000" height="1" y="45" />
        <rect width="1000" height="1" y="65" />
        <rect width="1000" height="1" y="85" />
        <rect width="1000" height="1" y="105" />
        <rect width="1000" height="1" y="125" />
        <rect width="1000" height="1" y="145" />
        <rect width="1000" height="1" y="165" />
        <rect width="1000" height="1" y="185" />
        <rect width="1000" height="1" y="205" />
        <rect width="1000" height="1" y="225" />
        <rect width="1000" height="1" y="245" />
        <rect width="1000" height="1" y="265" />
        <rect width="1000" height="1" y="285" />
        <rect width="1000" height="1" y="305" />
        <rect width="1000" height="1" y="325" />
        <rect width="1000" height="1" y="345" />
        <rect width="1000" height="1" y="365" />
        <rect width="1000" height="1" y="385" />
        <rect width="1000" height="1" y="405" />
        <rect width="1000" height="1" y="425" />
        <rect width="1000" height="1" y="445" />
        <rect width="1000" height="1" y="465" />
        <rect width="1000" height="1" y="485" />
        <rect width="1000" height="1" y="505" />
        <rect width="1000" height="1" y="525" />
        <rect width="1000" height="1" y="545" />
        <rect width="1000" height="1" y="565" />
        <rect width="1000" height="1" y="585" />
        <rect width="1000" height="1" y="605" />
        <rect width="1000" height="1" y="625" />
        <rect width="1000" height="1" y="645" />
        <rect width="1000" height="1" y="665" />
        <rect width="1000" height="1" y="685" />
        <rect width="1000" height="1" y="705" />
        <rect width="1000" height="1" y="725" />
        <rect width="1000" height="1" y="745" />
        <rect width="1000" height="1" y="765" />
        <rect width="1000" height="1" y="785" />
        <rect width="1000" height="1" y="805" />
        <rect width="1000" height="1" y="825" />
        <rect width="1000" height="1" y="845" />
        <rect width="1000" height="1" y="865" />
        <rect width="1000" height="1" y="885" />
        <rect width="1000" height="1" y="905" />
        <rect width="1000" height="1" y="925" />
        <rect width="1000" height="1" y="945" />
        <rect width="1000" height="1" y="965" />
        <rect width="1000" height="1" y="985" />
    </g>
    <rect width="1000" height="1000" fill="none" stroke-width="5" stroke="#fffff" xmlns="" />
</svg>